<?xml version="1.0" standalone="no"?><!DOCTYPE svg PUBLIC "-//W3C//DTD SVG 1.1//EN" "http://www.w3.org/Graphics/SVG/1.1/DTD/svg11.dtd"><svg t="1545201586645" class="icon" style="" viewBox="0 0 1024 1024" version="1.1" xmlns="http://www.w3.org/2000/svg" p-id="1090" xmlns:xlink="http://www.w3.org/1999/xlink" width="200" height="200"><defs><style type="text/css">@font-face { font-weight: 400; font-style: normal; font-family: Inter-Loom; src: url("https://cdn.useloom.com/assets/fonts/inter/Inter-UI-Regular.woff2") format("woff2"); }
@font-face { font-weight: 400; font-style: italic; font-family: Inter-Loom; src: url("https://cdn.useloom.com/assets/fonts/inter/Inter-UI-Italic.woff2") format("woff2"); }
@font-face { font-weight: 500; font-style: normal; font-family: Inter-Loom; src: url("https://cdn.useloom.com/assets/fonts/inter/Inter-UI-Medium.woff2") format("woff2"); }
@font-face { font-weight: 500; font-style: italic; font-family: Inter-Loom; src: url("https://cdn.useloom.com/assets/fonts/inter/Inter-UI-MediumItalic.woff2") format("woff2"); }
@font-face { font-weight: 700; font-style: normal; font-family: Inter-Loom; src: url("https://cdn.useloom.com/assets/fonts/inter/Inter-UI-Bold.woff2") format("woff2"); }
@font-face { font-weight: 700; font-style: italic; font-family: Inter-Loom; src: url("https://cdn.useloom.com/assets/fonts/inter/Inter-UI-BoldItalic.woff2") format("woff2"); }
@font-face { font-weight: 900; font-style: normal; font-family: Inter-Loom; src: url("https://cdn.useloom.com/assets/fonts/inter/Inter-UI-Black.woff2") format("woff2"); }
@font-face { font-weight: 900; font-style: italic; font-family: Inter-Loom; src: url("https://cdn.useloom.com/assets/fonts/inter/Inter-UI-BlackItalic.woff2") format("woff2"); }
</style></defs><path d="M465.132544 75.743232c18.172928-36.846592 47.88736-36.846592 66.039808 0l87.411712 177.503232c22.71232 40.148992 61.696 68.472832 106.872832 77.661184l195.47136 28.47744c40.621056 5.856256 49.800192 34.117632 20.443136 62.798848L799.909888 560.323584c-31.154176 34.076672-46.036992 79.971328-40.822784 125.824l33.3824 194.87744c6.949888 40.41728-17.089536 57.997312-53.415936 38.943744l-174.844928-92.094464c-41.98912-19.05152-90.131456-19.05152-132.100096 0l-174.834688 92.094464c-36.31616 19.052544-60.366848 1.452032-53.446656-38.943744l33.49504-194.87744c5.233664-45.852672-9.649152-91.747328-40.793088-125.824L55.05536 422.182912c-29.303808-28.681216-20.197376-56.942592 20.411392-62.798848l195.49184-28.47744c45.188096-9.188352 84.1728-37.512192 106.86464-77.661184L465.132544 75.743232z" p-id="1091"></path></svg>